<svg width="179" height="196" viewBox="0 0 179 196" fill="none" xmlns="http://www.w3.org/2000/svg">
<g opacity="0.7" filter="url(#filter0_d_253_55)">
<path d="M135.742 142.258V14.5161H8V180H96.8387L135.742 142.258Z" fill="white"/>
<path d="M135.742 142.258V14.5161H8" fill="#EAEAEA"/>
<path d="M8 0H135.742V20.3226H8V0Z" fill="#04AF76"/>
<path d="M8 0H135.742V20.3226" fill="#008C61"/>
<path d="M43.1294 86.2258C54.9946 86.2258 64.6132 76.6071 64.6132 64.7419C64.6132 52.8767 54.9946 43.2581 43.1294 43.2581C31.2642 43.2581 21.6455 52.8767 21.6455 64.7419C21.6455 76.6071 31.2642 86.2258 43.1294 86.2258Z" fill="#32BA7C"/>
<path d="M37.6128 74.3227L48.6451 85.355C57.9354 83.0324 64.6128 74.613 64.6128 64.4517C64.6128 64.1614 64.6128 64.1614 64.6128 63.8711L56.1934 55.7421L37.6128 74.3227Z" fill="#0AA06E"/>
<path d="M43.7096 69.6774C44.5806 70.5483 44.5806 72.2903 43.7096 73.1612L41.6773 75.1935C40.8064 76.0645 39.0644 76.0645 38.1935 75.1935L29.4838 66.4838C28.6128 65.6128 28.6128 63.8709 29.4838 62.9999L31.5161 60.9677C32.387 60.0967 34.129 60.0967 34.9999 60.9677L43.7096 69.6774Z" fill="white"/>
<path d="M51.2583 54.5807C52.1293 53.7097 53.8712 53.7097 54.7422 54.5807L56.7744 56.613C57.6454 57.4839 57.6454 59.2259 56.7744 60.0968L41.6777 75.1936C40.8067 76.0646 39.0648 76.0646 38.1938 75.1936L36.1615 73.1614C35.2906 72.2904 35.2906 70.5485 36.1615 69.6775L51.2583 54.5807Z" fill="white"/>
<path d="M43.1294 149.806C54.9946 149.806 64.6132 140.188 64.6132 128.323C64.6132 116.457 54.9946 106.839 43.1294 106.839C31.2642 106.839 21.6455 116.457 21.6455 128.323C21.6455 140.188 31.2642 149.806 43.1294 149.806Z" fill="#32BA7C"/>
<path d="M37.6128 137.903L48.6451 148.935C57.9354 146.613 64.6128 138.193 64.6128 128.032C64.6128 127.742 64.6128 127.742 64.6128 127.452L56.1934 119.323L37.6128 137.903Z" fill="#0AA06E"/>
<path d="M43.7096 132.968C44.5806 133.839 44.5806 135.581 43.7096 136.452L41.6773 138.484C40.8064 139.355 39.0644 139.355 38.1935 138.484L29.4838 129.774C28.6128 128.903 28.6128 127.161 29.4838 126.29L31.5161 124.258C32.387 123.387 34.129 123.387 34.9999 124.258L43.7096 132.968Z" fill="white"/>
<path d="M51.2583 117.871C52.1293 117 53.8712 117 54.7422 117.871L56.7744 119.903C57.6454 120.774 57.6454 122.516 56.7744 123.387L41.6777 138.484C40.8067 139.355 39.0648 139.355 38.1938 138.484L36.1615 136.452C35.2906 135.581 35.2906 133.839 36.1615 132.968L51.2583 117.871Z" fill="white"/>
<path d="M135.742 142.258H98V178.839L135.742 142.258Z" fill="#C9C9C9"/>
<path d="M122.096 127.742C122.096 129.774 120.354 130.645 118.322 130.645H77.3865C75.3542 130.645 73.6123 129.774 73.6123 127.742C73.6123 125.71 75.3542 124.839 77.3865 124.839H118.322C120.354 124.839 122.096 125.71 122.096 127.742Z" fill="#E2A750"/>
<path d="M122.096 63.8709C122.096 65.9031 120.354 66.7741 118.322 66.7741H77.3865C75.3542 66.7741 73.6123 65.9031 73.6123 63.8709C73.6123 61.8386 75.3542 60.9677 77.3865 60.9677H118.322C120.354 60.9677 122.096 61.8386 122.096 63.8709Z" fill="#E2A750"/>
<path d="M147.354 29.0322V143.71C147.354 150.097 152.58 151.839 158.967 151.839C165.354 151.839 170.58 150.097 170.58 143.71V29.0322H147.354Z" fill="#E2A750"/>
<path d="M156.065 29.0322V143.71C156.065 150.097 157.807 151.839 160.42 151.839C163.033 151.839 164.775 150.097 164.775 143.71V29.0322H156.065Z" fill="#F9D264"/>
<path d="M170.58 26.1291V14.8065C170.58 8.41943 165.354 6.67749 158.967 6.67749C152.58 6.67749 147.354 8.41943 147.354 14.8065V26.1291H170.58Z" fill="#C61867"/>
<path d="M170.581 26.1291V14.8065C170.581 8.41943 165.355 6.67749 158.968 6.67749" fill="#9E085A"/>
<path d="M147.354 146.903L158.967 168.387L170.58 146.903H147.354Z" fill="#EADCA2"/>
<path d="M158.968 146.903V168.387L170.581 146.903H158.968Z" fill="#D1C593"/>
<path d="M154.032 158.807L158.967 168.387L163.903 158.807H154.032Z" fill="#44390A"/>
</g>
<defs>
<filter id="filter0_d_253_55" x="0" y="0" width="178.581" height="196" filterUnits="userSpaceOnUse" color-interpolation-filters="sRGB">
<feFlood flood-opacity="0" result="BackgroundImageFix"/>
<feColorMatrix in="SourceAlpha" type="matrix" values="0 0 0 0 0 0 0 0 0 0 0 0 0 0 0 0 0 0 127 0" result="hardAlpha"/>
<feOffset dy="8"/>
<feGaussianBlur stdDeviation="4"/>
<feComposite in2="hardAlpha" operator="out"/>
<feColorMatrix type="matrix" values="0 0 0 0 0 0 0 0 0 0 0 0 0 0 0 0 0 0 0.25 0"/>
<feBlend mode="normal" in2="BackgroundImageFix" result="effect1_dropShadow_253_55"/>
<feBlend mode="normal" in="SourceGraphic" in2="effect1_dropShadow_253_55" result="shape"/>
</filter>
</defs>
</svg>
