<svg width="197" height="202" viewBox="0 0 197 202" fill="none" xmlns="http://www.w3.org/2000/svg">
<g opacity="0.7" filter="url(#filter0_d_204_1680)">
<path d="M29.3576 164.848L56.3882 143.466L128.385 136.093L165.117 166.585C167.261 168.364 168.618 170.798 168.932 173.426C169.702 179.865 164.143 185.463 157.051 185.39L37.1322 184.149C30.4867 184.08 25.1503 179.104 25.2131 173.036C25.2457 169.889 26.7547 166.907 29.3576 164.848Z" fill="url(#paint0_linear_204_1680)"/>
<path d="M29.3576 164.848L56.3882 143.466L128.385 136.093L165.117 166.585C167.261 168.364 168.618 170.798 168.932 173.426C169.702 179.865 164.143 185.463 157.051 185.39L37.1322 184.149C30.4867 184.08 25.1503 179.104 25.2131 173.036C25.2457 169.889 26.7547 166.907 29.3576 164.848Z" fill="url(#paint1_linear_204_1680)"/>
<path d="M29.3576 164.848L56.3882 143.466L128.385 136.093L165.117 166.585C167.261 168.364 168.618 170.798 168.932 173.426C169.702 179.865 164.143 185.463 157.051 185.39L37.1322 184.149C30.4867 184.08 25.1503 179.104 25.2131 173.036C25.2457 169.889 26.7547 166.907 29.3576 164.848Z" fill="url(#paint2_radial_204_1680)"/>
<path d="M29.3576 164.848L56.3882 143.466L128.385 136.093L165.117 166.585C167.261 168.364 168.618 170.798 168.932 173.426C169.702 179.865 164.143 185.463 157.051 185.39L37.1322 184.149C30.4867 184.08 25.1503 179.104 25.2131 173.036C25.2457 169.889 26.7547 166.907 29.3576 164.848Z" fill="url(#paint3_linear_204_1680)"/>
<path d="M97.197 165.3C136.904 165.711 169.398 136.648 169.773 100.388C170.148 64.1269 138.263 34.3986 98.556 33.9877C58.8487 33.5768 26.3555 62.6388 25.9802 98.8996C25.605 135.16 57.4898 164.889 97.197 165.3Z" fill="url(#paint4_radial_204_1680)"/>
<path d="M97.197 165.3C136.904 165.711 169.398 136.648 169.773 100.388C170.148 64.1269 138.263 34.3986 98.556 33.9877C58.8487 33.5768 26.3555 62.6388 25.9802 98.8996C25.605 135.16 57.4898 164.889 97.197 165.3Z" fill="url(#paint5_radial_204_1680)"/>
<path d="M97.4102 144.604C124.95 144.889 147.487 124.733 147.747 99.5826C148.008 74.4331 125.893 53.814 98.3528 53.529C70.8129 53.244 48.2758 73.401 48.0156 98.5505C47.7553 123.701 69.8703 144.319 97.4102 144.604Z" fill="url(#paint6_linear_204_1680)"/>
<path d="M97.4102 144.604C124.95 144.889 147.487 124.733 147.747 99.5826C148.008 74.4331 125.893 53.814 98.3528 53.529C70.8129 53.244 48.2758 73.401 48.0156 98.5505C47.7553 123.701 69.8703 144.319 97.4102 144.604Z" fill="url(#paint7_radial_204_1680)"/>
<path d="M97.4102 144.604C124.95 144.889 147.487 124.733 147.747 99.5826C148.008 74.4331 125.893 53.814 98.3528 53.529C70.8129 53.244 48.2758 73.401 48.0156 98.5505C47.7553 123.701 69.8703 144.319 97.4102 144.604Z" fill="url(#paint8_radial_204_1680)"/>
<path fill-rule="evenodd" clip-rule="evenodd" d="M100.861 76.3292C100.899 72.7 97.7073 69.7245 93.7331 69.6834C89.7589 69.6422 86.5067 72.5511 86.4691 76.1803L86.1972 102.457C86.1742 104.675 87.3577 106.649 89.1892 107.859L103.059 120.436C105.899 122.979 110.453 122.943 113.232 120.355C116.012 117.767 115.963 113.608 113.124 111.064L100.619 99.7247L100.861 76.3292Z" fill="url(#paint9_linear_204_1680)"/>
<path d="M25.4395 6.31053C10.9881 15.4397 5.23622 32.4692 10.377 47.542C12.0012 52.2316 17.8356 54.1606 22.1845 51.469L70.0274 21.3242C74.3071 18.6316 74.7868 12.6956 70.9178 9.38464C58.5508 -1.09014 39.8909 -2.81867 25.4395 6.31053Z" fill="url(#paint10_radial_204_1680)"/>
<path d="M25.4395 6.31053C10.9881 15.4397 5.23622 32.4692 10.377 47.542C12.0012 52.2316 17.8356 54.1606 22.1845 51.469L70.0274 21.3242C74.3071 18.6316 74.7868 12.6956 70.9178 9.38464C58.5508 -1.09014 39.8909 -2.81867 25.4395 6.31053Z" fill="url(#paint11_linear_204_1680)"/>
<path d="M172.228 7.82988C186.488 17.2562 191.886 34.4011 186.434 49.3642C184.713 54.0192 178.84 55.827 174.548 53.0461L127.339 21.9176C123.116 19.137 122.759 13.1923 126.696 9.96214C139.277 -0.254452 157.969 -1.59644 172.228 7.82988Z" fill="url(#paint12_radial_204_1680)"/>
<path d="M172.228 7.82988C186.488 17.2562 191.886 34.4011 186.434 49.3642C184.713 54.0192 178.84 55.827 174.548 53.0461L127.339 21.9176C123.116 19.137 122.759 13.1923 126.696 9.96214C139.277 -0.254452 157.969 -1.59644 172.228 7.82988Z" fill="url(#paint13_linear_204_1680)"/>
<path fill-rule="evenodd" clip-rule="evenodd" d="M92.946 95.02C95.7247 92.4324 100.279 92.3954 103.119 94.9385L117.609 108.078C120.448 110.621 120.496 114.781 117.717 117.368C114.938 119.957 110.383 119.993 107.544 117.45L93.0543 104.311C90.2149 101.768 90.1665 97.6083 92.946 95.02Z" fill="url(#paint14_linear_204_1680)"/>
<path fill-rule="evenodd" clip-rule="evenodd" d="M98.217 66.6961C102.191 66.7372 105.383 69.7127 105.345 73.3419L105.073 99.6184C105.036 103.248 101.783 106.156 97.8091 106.115C93.8349 106.074 90.6435 103.099 90.6811 99.4695L90.953 73.193C90.9905 69.5638 94.2428 66.6549 98.217 66.6961Z" fill="url(#paint15_linear_204_1680)"/>
<path fill-rule="evenodd" clip-rule="evenodd" d="M98.217 66.6961C102.191 66.7372 105.383 69.7127 105.345 73.3419L105.073 99.6184C105.036 103.248 101.783 106.156 97.8091 106.115C93.8349 106.074 90.6435 103.099 90.6811 99.4695L90.953 73.193C90.9905 69.5638 94.2428 66.6549 98.217 66.6961Z" fill="url(#paint16_radial_204_1680)"/>
</g>
<defs>
<filter id="filter0_d_204_1680" x="0.527344" y="0.38623" width="195.994" height="201.004" filterUnits="userSpaceOnUse" color-interpolation-filters="sRGB">
<feFlood flood-opacity="0" result="BackgroundImageFix"/>
<feColorMatrix in="SourceAlpha" type="matrix" values="0 0 0 0 0 0 0 0 0 0 0 0 0 0 0 0 0 0 127 0" result="hardAlpha"/>
<feOffset dy="8"/>
<feGaussianBlur stdDeviation="4"/>
<feComposite in2="hardAlpha" operator="out"/>
<feColorMatrix type="matrix" values="0 0 0 0 0 0 0 0 0 0 0 0 0 0 0 0 0 0 0.25 0"/>
<feBlend mode="normal" in2="BackgroundImageFix" result="effect1_dropShadow_204_1680"/>
<feBlend mode="normal" in="SourceGraphic" in2="effect1_dropShadow_204_1680" result="shape"/>
</filter>
<linearGradient id="paint0_linear_204_1680" x1="36.0858" y1="173.225" x2="160.097" y2="174.508" gradientUnits="userSpaceOnUse">
<stop stop-color="#D4BDE5"/>
<stop offset="1" stop-color="#E5CAF2"/>
</linearGradient>
<linearGradient id="paint1_linear_204_1680" x1="101.092" y1="187.587" x2="101.197" y2="177.432" gradientUnits="userSpaceOnUse">
<stop stop-color="#D4A6F6"/>
<stop offset="1" stop-color="#D4A6F6" stop-opacity="0"/>
</linearGradient>
<radialGradient id="paint2_radial_204_1680" cx="0" cy="0" r="1" gradientUnits="userSpaceOnUse" gradientTransform="translate(83.1237 135.625) rotate(106.846) scale(33.7173 55.023)">
<stop offset="0.654006" stop-color="#BE87BE"/>
<stop offset="1" stop-color="#BE87BE" stop-opacity="0"/>
</radialGradient>
<linearGradient id="paint3_linear_204_1680" x1="153.792" y1="154.066" x2="148.649" y2="160.021" gradientUnits="userSpaceOnUse">
<stop stop-color="#F3E5F1"/>
<stop offset="1" stop-color="#F3E5F1" stop-opacity="0"/>
</linearGradient>
<radialGradient id="paint4_radial_204_1680" cx="0" cy="0" r="1" gradientUnits="userSpaceOnUse" gradientTransform="translate(137.523 51.8771) rotate(123.652) scale(122.089 127.087)">
<stop stop-color="#FF4995"/>
<stop offset="1" stop-color="#FF435C"/>
</radialGradient>
<radialGradient id="paint5_radial_204_1680" cx="0" cy="0" r="1" gradientUnits="userSpaceOnUse" gradientTransform="translate(97.8765 99.6437) rotate(90.5929) scale(51.4789 56.3717)">
<stop offset="0.848448" stop-color="#D2355C"/>
<stop offset="1" stop-color="#D2355C" stop-opacity="0"/>
</radialGradient>
<linearGradient id="paint6_linear_204_1680" x1="60.4018" y1="67.9275" x2="117.895" y2="146.46" gradientUnits="userSpaceOnUse">
<stop stop-color="#FFECFF"/>
<stop offset="1" stop-color="#DDC8E2"/>
</linearGradient>
<radialGradient id="paint7_radial_204_1680" cx="0" cy="0" r="1" gradientUnits="userSpaceOnUse" gradientTransform="translate(98.3018 58.4566) rotate(90.5929) scale(90.407 98.9998)">
<stop offset="0.718182" stop-color="#B89A9F" stop-opacity="0"/>
<stop offset="1" stop-color="#B89A9F"/>
</radialGradient>
<radialGradient id="paint8_radial_204_1680" cx="0" cy="0" r="1" gradientUnits="userSpaceOnUse" gradientTransform="translate(82.6964 87.8844) rotate(30.8856) scale(70.8774 60.047)">
<stop offset="0.887109" stop-color="#B394A7" stop-opacity="0"/>
<stop offset="0.977057" stop-color="#B394A7"/>
</radialGradient>
<linearGradient id="paint9_linear_204_1680" x1="101.149" y1="69.7601" x2="100.606" y2="122.243" gradientUnits="userSpaceOnUse">
<stop stop-color="#C4AFCA"/>
<stop offset="1" stop-color="#CFA5CF"/>
</linearGradient>
<radialGradient id="paint10_radial_204_1680" cx="0" cy="0" r="1" gradientUnits="userSpaceOnUse" gradientTransform="translate(71.2405 20.7791) rotate(-169.716) scale(56.151 58.0125)">
<stop stop-color="#FFDC56"/>
<stop offset="0.593115" stop-color="#FFB02E"/>
<stop offset="1" stop-color="#BF8942"/>
</radialGradient>
<linearGradient id="paint11_linear_204_1680" x1="53.3505" y1="32.1865" x2="51.2683" y2="29.1338" gradientUnits="userSpaceOnUse">
<stop stop-color="#F88F6D"/>
<stop offset="1" stop-color="#F88F6D" stop-opacity="0"/>
</linearGradient>
<radialGradient id="paint12_radial_204_1680" cx="0" cy="0" r="1" gradientUnits="userSpaceOnUse" gradientTransform="translate(186.434 21.9715) rotate(-173.882) scale(62.8419 99.7704)">
<stop stop-color="#FFFF63"/>
<stop offset="0.7359" stop-color="#F1AE2C"/>
<stop offset="1" stop-color="#C48039"/>
</radialGradient>
<linearGradient id="paint13_linear_204_1680" x1="156.078" y1="41.6838" x2="158.68" y2="37.7654" gradientUnits="userSpaceOnUse">
<stop stop-color="#E76D2F"/>
<stop offset="1" stop-color="#E76D2F" stop-opacity="0"/>
</linearGradient>
<linearGradient id="paint14_linear_204_1680" x1="109.07" y1="104.749" x2="106.896" y2="118.658" gradientUnits="userSpaceOnUse">
<stop stop-color="#FF4F5C"/>
<stop offset="1" stop-color="#F0368B"/>
</linearGradient>
<linearGradient id="paint15_linear_204_1680" x1="94.9052" y1="83.4955" x2="108.318" y2="83.6343" gradientUnits="userSpaceOnUse">
<stop stop-color="#3A234F"/>
<stop offset="1" stop-color="#3A323B"/>
</linearGradient>
<radialGradient id="paint16_radial_204_1680" cx="0" cy="0" r="1" gradientUnits="userSpaceOnUse" gradientTransform="translate(101.84 69.3986) rotate(117.375) scale(8.10052 8.17275)">
<stop stop-color="#463C4B"/>
<stop offset="1" stop-color="#463C4B" stop-opacity="0"/>
</radialGradient>
</defs>
</svg>
