<svg width="162" height="172" viewBox="0 0 162 172" fill="none" xmlns="http://www.w3.org/2000/svg">
<g filter="url(#filter0_d_157_74)">
<path d="M138.553 69.0893C141.56 68.2836 143.357 65.1715 142.551 62.1646L138.645 47.5869C137.84 44.5799 134.728 42.7832 131.721 43.5889C128.714 44.3946 126.917 47.5067 127.723 50.5136L131.626 65.0807C132.424 68.1011 135.547 69.895 138.553 69.0893Z" fill="url(#paint0_radial_157_74)"/>
<path d="M35.9856 96.8571L43.6508 92.5256C47.8639 90.144 53.2657 91.6461 55.6473 95.8593L64.3074 111.179C66.689 115.392 65.1869 120.794 60.9738 123.175L53.3087 127.507C49.0955 129.889 43.6937 128.386 41.3121 124.173L32.652 108.854C30.2704 104.641 31.7725 99.2387 35.9856 96.8571Z" fill="url(#paint1_radial_157_74)"/>
<path opacity="0.2" d="M46.5375 94.8838C48.9706 94.2319 51.5235 95.3016 52.7583 97.4875L61.4184 112.807C62.9117 115.448 61.9783 118.807 59.3378 120.3L51.6727 124.631C51.2655 124.854 50.847 125.035 50.4007 125.154C47.9675 125.806 45.4147 124.737 44.1799 122.551L35.5198 107.231C34.0265 104.591 34.9599 101.232 37.6004 99.7383L45.2655 95.4069C45.6698 95.1733 46.1018 95.0006 46.5375 94.8838ZM45.6834 91.6963C44.9821 91.8842 44.3036 92.1571 43.6401 92.5285L35.975 96.8599C31.7618 99.2415 30.2569 104.633 32.6414 108.857L41.3014 124.176C43.3145 127.736 47.4722 129.355 51.2548 128.342C51.9561 128.154 52.6345 127.881 53.298 127.51L60.9632 123.178C65.1763 120.797 66.6812 115.405 64.2968 111.182L55.6367 95.8621C53.6236 92.3018 49.4659 90.6827 45.6834 91.6963Z" fill="#424242"/>
<path opacity="0.2" d="M132.575 46.7764C133.828 46.4405 135.122 47.1872 135.458 48.441L139.361 63.0081C139.697 64.2619 138.95 65.5552 137.696 65.8911C136.443 66.2271 135.149 65.4804 134.813 64.2266L130.91 49.6595C130.564 48.4086 131.321 47.1124 132.575 46.7764ZM131.721 43.5889C128.714 44.3946 126.917 47.5067 127.723 50.5136L131.626 65.0807C132.432 68.0876 135.544 69.8844 138.551 69.0787C141.558 68.273 143.354 65.1609 142.549 62.154L138.645 47.5869C137.84 44.5799 134.728 42.7832 131.721 43.5889Z" fill="#424242"/>
<path d="M58.9836 141.292L57.916 137.307C57.4491 135.565 57.9316 133.796 59.0243 132.603C60.0829 131.454 60.4522 129.772 60.028 128.189L59.3959 125.83C58.8749 123.886 57.7142 122.614 56.2122 122.151C54.6832 121.672 53.3807 120.381 52.9138 118.639L51.8462 114.654C51.3764 112.901 51.8618 111.143 52.9544 109.95C54.0131 108.801 54.3852 107.13 53.961 105.547L53.03 102.072C51.2193 95.3147 44.8367 91.3423 38.7591 92.9708L35.0615 93.9615C28.9946 95.5872 25.4398 102.211 27.1736 108.682L39.9567 156.389C41.2919 161.372 46.2103 164.427 50.8853 163.174L59.6617 160.823C64.3368 159.57 67.0686 154.465 65.7334 149.482L65.369 148.122C64.9448 146.539 63.784 145.267 62.282 144.804C60.753 144.325 59.4534 143.045 58.9836 141.292Z" fill="url(#paint2_radial_157_74)"/>
<path opacity="0.2" d="M41.9017 120.041L33.4015 122.318C32.2328 122.632 31.0203 121.932 30.7071 120.763C30.3939 119.594 31.094 118.382 32.2627 118.068L40.7629 115.791C41.9316 115.478 43.1441 116.178 43.4573 117.346C43.7705 118.515 43.0705 119.728 41.9017 120.041Z" fill="#424242"/>
<path opacity="0.2" d="M45.3182 132.791L36.818 135.069C35.6493 135.382 34.4368 134.682 34.1236 133.513C33.8104 132.344 34.5105 131.132 35.6792 130.819L44.1794 128.541C45.3482 128.228 46.5607 128.928 46.8738 130.097C47.187 131.265 46.487 132.478 45.3182 132.791Z" fill="#424242"/>
<path opacity="0.2" d="M48.7347 145.541L40.2345 147.819C39.0658 148.132 37.8533 147.432 37.5401 146.263C37.2269 145.095 37.927 143.882 39.0957 143.569L47.5959 141.291C48.7647 140.978 49.9772 141.678 50.2903 142.847C50.6035 144.016 49.9035 145.228 48.7347 145.541Z" fill="#424242"/>
<path opacity="0.2" d="M39.6161 96.1691C43.9406 95.0103 48.5358 98.0496 49.8454 102.937L50.7764 106.412C50.9073 106.9 50.8066 107.417 50.5342 107.718C48.6079 109.794 47.9099 112.714 48.6587 115.509L49.7263 119.493C50.4751 122.288 52.5368 124.457 55.2354 125.305C55.8095 125.493 56.0946 126.259 56.2113 126.695L56.8434 129.054C56.9772 129.553 56.8765 130.07 56.5962 130.384C54.6835 132.468 53.9826 135.378 54.7314 138.172L55.799 142.157C56.5478 144.951 58.6095 147.12 61.308 147.969C61.7078 148.101 62.0534 148.498 62.1872 148.997L62.5516 150.357C63.4199 153.598 61.746 156.871 58.8134 157.657L50.0476 160.005C47.1151 160.791 44.029 158.794 43.1606 155.553L30.3776 107.846C29.1107 103.118 31.597 98.3292 35.932 97.1676L39.619 96.1797M38.762 92.9815L35.0645 93.9723C28.9975 95.5979 25.4427 102.222 27.1765 108.692L39.9596 156.399C41.2949 161.383 46.2132 164.438 50.8883 163.185L59.6647 160.834C64.3397 159.581 67.0716 154.476 65.7363 149.493L65.3719 148.133C64.9477 146.549 63.7869 145.278 62.2849 144.814C60.7425 144.328 59.4535 143.045 58.9837 141.292L57.9161 137.307C57.4492 135.565 57.9317 133.796 59.0243 132.603C60.083 131.454 60.4523 129.772 60.0281 128.189L59.396 125.83C58.875 123.886 57.7143 122.614 56.2123 122.151C54.6833 121.672 53.3808 120.382 52.9139 118.639L51.8463 114.655C51.3765 112.901 51.8591 111.132 52.9545 109.95C54.0132 108.801 54.3853 107.13 53.9611 105.547L53.0301 102.072C51.2223 95.3254 44.8396 91.353 38.762 92.9815Z" fill="#EEEEEE"/>
<path d="M13.7776 66.0813L55.1395 50.4432C58.6565 49.5008 64.5752 60.1571 68.3475 74.2354C72.1197 88.3138 72.3221 100.502 68.8052 101.444L25.1656 108.582C21.6487 109.524 16.2424 100.781 13.0965 89.0399C9.95055 77.299 10.2607 67.0237 13.7776 66.0813Z" fill="url(#paint3_radial_157_74)"/>
<path opacity="0.2" d="M55.5326 53.8226C57.3815 55.2404 61.7606 62.4031 65.1599 75.0895C68.5592 87.776 68.3482 96.1686 67.4558 98.3209L24.7103 105.31C23.1115 104.486 19.1168 98.7578 16.2841 88.1858C13.4513 77.6137 14.0466 70.6555 15.0085 69.1451L55.5326 53.8226ZM55.1395 50.4432L13.7776 66.0813C10.2607 67.0237 9.95055 77.299 13.0965 89.0399C16.2424 100.781 21.6487 109.524 25.1656 108.582L68.8052 101.444C72.3221 100.502 72.1197 88.3138 68.3475 74.2354C64.5752 60.1571 58.6565 49.5008 55.1395 50.4432Z" fill="#424242"/>
<path d="M57.7127 47.8063L119.389 9.72251L144.808 104.584L72.352 102.441C67.7301 103.679 60.7025 92.4549 56.6597 77.3671C52.617 62.2793 53.0908 49.0448 57.7127 47.8063Z" fill="url(#paint4_radial_157_74)"/>
<path d="M142.007 106.883L143.07 106.599C145.418 105.969 146.81 103.558 146.181 101.21L122.266 11.9582C121.637 9.61002 119.225 8.21772 116.877 8.84691L115.815 9.13161C114.051 9.60422 113.008 11.4095 113.481 13.1733L137.965 104.55C138.438 106.314 140.243 107.356 142.007 106.883Z" fill="url(#paint5_linear_157_74)"/>
<path opacity="0.2" d="M117.731 12.0345C118.316 11.8779 118.922 12.228 119.079 12.8123L142.993 102.064C143.15 102.648 142.8 103.255 142.216 103.411L141.153 103.696L141.108 103.526C140.732 102.123 139.474 101.128 138.017 101.086L72.4487 99.1468C72.1631 99.1436 71.8833 99.1617 71.607 99.2357C69.8451 98.8651 63.9327 91.7602 59.8473 76.5131C55.7618 61.2659 57.3296 52.1568 58.6702 50.9548C58.9436 50.8702 59.1979 50.7565 59.4436 50.611L115.258 16.1479C116.499 15.3826 117.09 13.8918 116.714 12.4892L116.669 12.3192L117.731 12.0345ZM116.877 8.84697L115.815 9.13167C114.051 9.60427 113.009 11.4095 113.481 13.1733L113.527 13.3433L57.7127 47.8064C53.0908 49.0448 52.617 62.2794 56.6597 77.3672C60.7025 92.4549 67.7301 103.68 72.352 102.441L137.92 104.38L137.966 104.55C138.438 106.314 140.243 107.356 142.007 106.883L143.07 106.599C145.418 105.969 146.81 103.558 146.181 101.21L122.266 11.9582C121.637 9.61007 119.225 8.21778 116.877 8.84697Z" fill="#424242"/>
</g>
<defs>
<filter id="filter0_d_157_74" x="6.9248" y="0.695801" width="151.407" height="170.77" filterUnits="userSpaceOnUse" color-interpolation-filters="sRGB">
<feFlood flood-opacity="0" result="BackgroundImageFix"/>
<feColorMatrix in="SourceAlpha" type="matrix" values="0 0 0 0 0 0 0 0 0 0 0 0 0 0 0 0 0 0 127 0" result="hardAlpha"/>
<feOffset dx="4"/>
<feGaussianBlur stdDeviation="4"/>
<feComposite in2="hardAlpha" operator="out"/>
<feColorMatrix type="matrix" values="0 0 0 0 0 0 0 0 0 0 0 0 0 0 0 0 0 0 0.25 0"/>
<feBlend mode="normal" in2="BackgroundImageFix" result="effect1_dropShadow_157_74"/>
<feBlend mode="normal" in="SourceGraphic" in2="effect1_dropShadow_157_74" result="shape"/>
</filter>
<radialGradient id="paint0_radial_157_74" cx="0" cy="0" r="1" gradientUnits="userSpaceOnUse" gradientTransform="translate(133.53 46.8996) rotate(-15) scale(27.368)">
<stop stop-color="#9E9E9E"/>
<stop offset="0.2247" stop-color="#8D8D8D"/>
<stop offset="0.7241" stop-color="#6D6D6D"/>
<stop offset="1" stop-color="#616161"/>
</radialGradient>
<radialGradient id="paint1_radial_157_74" cx="0" cy="0" r="1" gradientUnits="userSpaceOnUse" gradientTransform="translate(56.9574 118.854) rotate(-15) scale(20.6162 20.6162)">
<stop stop-color="#BDBDBD"/>
<stop offset="1" stop-color="#BDBDBD"/>
</radialGradient>
<radialGradient id="paint2_radial_157_74" cx="0" cy="0" r="1" gradientUnits="userSpaceOnUse" gradientTransform="translate(42.1842 99.8458) rotate(-15) scale(58.2857 58.2857)">
<stop stop-color="#757575"/>
<stop offset="0.1054" stop-color="#6E6E6E"/>
<stop offset="0.6817" stop-color="#4E4E4E"/>
<stop offset="1" stop-color="#424242"/>
</radialGradient>
<radialGradient id="paint3_radial_157_74" cx="0" cy="0" r="1" gradientUnits="userSpaceOnUse" gradientTransform="translate(29.4813 63.7719) rotate(-15) scale(46.5949 46.5949)">
<stop stop-color="#EF5350"/>
<stop offset="0.3237" stop-color="#F0504B"/>
<stop offset="0.7149" stop-color="#F3473C"/>
<stop offset="0.8365" stop-color="#F44336"/>
<stop offset="1" stop-color="#F44336"/>
</radialGradient>
<radialGradient id="paint4_radial_157_74" cx="0" cy="0" r="1" gradientUnits="userSpaceOnUse" gradientTransform="translate(83.3117 35.8714) rotate(-15) scale(69.1823)">
<stop stop-color="#F5F5F5"/>
<stop offset="0.5297" stop-color="#E8E8E8"/>
<stop offset="0.7836" stop-color="#E0E0E0"/>
<stop offset="1" stop-color="#E0E0E0"/>
</radialGradient>
<linearGradient id="paint5_linear_157_74" x1="116.379" y1="6.98751" x2="143.739" y2="109.099" gradientUnits="userSpaceOnUse">
<stop stop-color="#BDBDBD"/>
<stop offset="1" stop-color="#BDBDBD"/>
</linearGradient>
</defs>
</svg>
