<svg width="112" height="112" viewBox="0 0 112 112" fill="none" xmlns="http://www.w3.org/2000/svg">
<path fill-rule="evenodd" clip-rule="evenodd" d="M55.9998 31.3773L48.4646 23.8421L55.9998 16.307L63.5349 23.8421L55.9998 31.3773ZM33.4894 27.0579C31.7137 25.2822 31.7137 22.4021 33.4894 20.6264L52.784 1.33181C54.5597 -0.443936 57.4398 -0.443936 59.2155 1.33181L78.5101 20.6264C80.2858 22.4021 80.2858 25.2822 78.5101 27.0579L59.2155 46.3525C57.4398 48.1282 54.5597 48.1282 52.784 46.3525L33.4894 27.0579ZM23.8421 63.5349L16.307 55.9998L23.8421 48.4646L31.3773 55.9998L23.8421 63.5349ZM1.33181 59.2155C-0.443936 57.4398 -0.443936 54.5597 1.33181 52.784L20.6264 33.4894C22.4028 31.7137 25.2822 31.7137 27.0579 33.4894L46.3525 52.784C48.1289 54.5597 48.1282 57.4398 46.3525 59.2155L27.0579 78.5101C25.2822 80.2858 22.4021 80.2858 20.6264 78.5101L1.33181 59.2155ZM48.4646 88.1574L55.9998 95.6926L63.5349 88.1574L55.9998 80.6222L48.4646 88.1574ZM33.4894 84.9416C31.7137 86.7174 31.7137 89.5974 33.4894 91.3731L52.784 110.668C54.5597 112.443 57.4398 112.443 59.2155 110.668L78.5101 91.3731C80.2858 89.5974 80.2858 86.7174 78.5101 84.9416L59.2155 65.647C57.4398 63.8713 54.5597 63.8713 52.784 65.647L33.4894 84.9416ZM88.1574 63.5349L80.6222 55.9998L88.1574 48.4646L95.6926 55.9998L88.1574 63.5349ZM65.647 59.2155C63.8713 57.4398 63.8713 54.5597 65.647 52.784L84.9416 33.4894C86.718 31.7137 89.5974 31.7137 91.3731 33.4894L110.668 52.784C112.444 54.5597 112.444 57.4398 110.668 59.2155L91.3731 78.5101C89.5974 80.2858 86.718 80.2858 84.9416 78.5101L65.647 59.2155Z" fill="white"/>
</svg>
