<svg width="112" height="112" viewBox="0 0 112 112" fill="none" xmlns="http://www.w3.org/2000/svg">
<path id="Vector" fill-rule="evenodd" clip-rule="evenodd" d="M55.9998 31.3776L48.4646 23.8424L55.9998 16.3072L63.5349 23.8424L55.9998 31.3776ZM33.4894 27.0581C31.7137 25.2824 31.7137 22.4024 33.4894 20.6266L52.784 1.33205C54.5597 -0.443692 57.4398 -0.443692 59.2155 1.33205L78.5101 20.6266C80.2858 22.4024 80.2858 25.2824 78.5101 27.0581L59.2155 46.3527C57.4398 48.1285 54.5597 48.1285 52.784 46.3527L33.4894 27.0581ZM23.8421 63.5352L16.307 56L23.8421 48.4648L31.3773 56L23.8421 63.5352ZM1.33181 59.2158C-0.443936 57.44 -0.443936 54.56 1.33181 52.7842L20.6264 33.4897C22.4028 31.7139 25.2822 31.7139 27.0579 33.4897L46.3525 52.7842C48.1289 54.56 48.1282 57.44 46.3525 59.2158L27.0579 78.5103C25.2822 80.2861 22.4021 80.2861 20.6264 78.5103L1.33181 59.2158ZM48.4646 88.1576L55.9998 95.6928L63.5349 88.1576L55.9998 80.6225L48.4646 88.1576ZM33.4894 84.9419C31.7137 86.7176 31.7137 89.5976 33.4894 91.3734L52.784 110.668C54.5597 112.444 57.4398 112.444 59.2155 110.668L78.5101 91.3734C80.2858 89.5976 80.2858 86.7176 78.5101 84.9419L59.2155 65.6473C57.4398 63.8715 54.5597 63.8715 52.784 65.6473L33.4894 84.9419ZM88.1574 63.5352L80.6222 56L88.1574 48.4648L95.6926 56L88.1574 63.5352ZM65.647 59.2158C63.8713 57.44 63.8713 54.56 65.647 52.7842L84.9416 33.4897C86.718 31.7139 89.5974 31.7139 91.3731 33.4897L110.668 52.7842C112.444 54.56 112.444 57.44 110.668 59.2158L91.3731 78.5103C89.5974 80.2861 86.718 80.2861 84.9416 78.5103L65.647 59.2158Z" fill="white"/>
</svg>
